M48
;Layer_Color=9474304
;FILE_FORMAT=2:5
INCH,LZ
;TYPE=PLATED
T1F00S00C0.00787
T2F00S00C0.01575
T3F00S00C0.03543
T4F00S00C0.05512
T5F00S00C0.39370
%
T01
X-001752Y-0066142
Y-0059547
X-0017717Y-0053051
X-001378Y-0047539
X-000561Y-0049213
X-0005512Y-0041831
X-0007283Y-0032579
X0023228Y-0034646
X0024803Y-0037795
X002874Y-0037008
X0037402Y-0043307
X0050394Y-0049606
X004685Y-0031496
X0050394Y-0011024
X0046063Y-0007087
X003878Y0009449
X007126Y-0023228
X002372Y-0052067
X0011811Y-0056693
X000689Y-0054921
X0016929Y-0062992
X0016535Y-006811
X-000876Y-0068504
X-003937Y-0012992
X-0045866Y-00125
X-0026772Y0000394
X-0026476Y0024016
X-0017323Y0023622
X-0020669Y0033858
X-0022441Y0049606
X-0023327Y0055906
X-0026476Y0056496
X-0009154Y0052165
X-0004331Y0055905
X-0004724Y0066535
X0007087Y0061024
X0009843Y0059055
X0009449Y0052362
X0017323Y003937
X002874Y0029528
X0002362Y0029134
X-0004331Y0038583
X-0036516Y0036909
X-0036614Y0028248
X-0037992Y0020965
X-0053937Y0024803
X-007126
X0054724
X0071653Y0025197
X0039764Y0059842
T02
X0014567Y-0047638
X0020079Y0035433
T03
X-0043996Y000689
Y001689
Y002689
Y003689
Y004689
Y005689
T04
X-0064625Y-0032928
X-002834Y-0066765
X-0061024Y003937
X0003796Y0072431
X0057926Y004365
T05
X0Y0
M30
