G04 Layer_Color=65535*
%FSLAX25Y25*%
%MOIN*%
G70*
G01*
G75*
%ADD29C,0.00787*%
%ADD49C,0.00394*%
%ADD50C,0.00600*%
%ADD51C,0.00472*%
D29*
X-38996Y1890D02*
Y61890D01*
X-48996Y1890D02*
Y61890D01*
Y1890D02*
X-38996D01*
X-48996Y61890D02*
X-38996D01*
X-50295Y-40799D02*
X-29232D01*
X-50295Y-55067D02*
X-26870D01*
X-44094Y-34646D02*
Y-29134D01*
X-44291Y-24409D02*
Y-18898D01*
X-22047Y-22047D02*
X-15354D01*
X-23622Y-18504D02*
X-15354D01*
X-24508Y-41429D02*
X-14980D01*
X-21673Y-46350D02*
X-14980D01*
X-22244Y-33957D02*
X-15551D01*
X-22244Y-37500D02*
X-13976D01*
X-22323Y-30224D02*
X-12795D01*
X-22323Y-25303D02*
X-15630D01*
X14075Y-50886D02*
X19587D01*
X21240Y11122D02*
Y17126D01*
X21752Y18504D02*
X41043D01*
Y31102D01*
X21752D02*
X41043D01*
X21752Y18504D02*
Y31102D01*
X54823Y-36740D02*
X59744D01*
X53445Y-32803D02*
Y-21307D01*
X52854D02*
X53445D01*
X52854Y-32803D02*
Y-21307D01*
Y-32803D02*
X53445D01*
X53411Y54461D02*
X52755Y55117D01*
X51443D01*
X50787Y54461D01*
Y53805D01*
X51443Y53149D01*
X52755D01*
X53411Y52493D01*
Y51837D01*
X52755Y51181D01*
X51443D01*
X50787Y51837D01*
X54723Y53149D02*
X57347D01*
X56035Y54461D02*
Y51837D01*
X-17323Y71161D02*
Y75097D01*
X-15355D01*
X-14699Y74441D01*
Y73129D01*
X-15355Y72473D01*
X-17323D01*
X-16011D02*
X-14699Y71161D01*
X-13387Y75097D02*
X-10763D01*
X-12075D01*
Y71161D01*
X-9451Y75097D02*
Y71161D01*
X-7484D01*
X-6827Y71817D01*
Y74441D01*
X-7484Y75097D01*
X-9451D01*
X-5516Y73129D02*
X-2892D01*
X-4204Y74441D02*
Y71817D01*
X-51575Y43701D02*
X-55510D01*
Y45669D01*
X-54855Y46325D01*
X-53543D01*
X-52887Y45669D01*
Y43701D01*
Y45013D02*
X-51575Y46325D01*
X-55510Y47637D02*
Y50260D01*
Y48948D01*
X-51575D01*
X-55510Y51572D02*
X-51575D01*
Y53540D01*
X-52231Y54196D01*
X-54855D01*
X-55510Y53540D01*
Y51572D01*
X-53543Y55508D02*
Y58132D01*
X-38287Y-58072D02*
Y-62008D01*
X-35664D01*
X-34352Y-60040D02*
X-31728D01*
X-68405Y-21064D02*
Y-25000D01*
X-65782D01*
X-64470Y-23032D02*
X-61846D01*
X-63158Y-21720D02*
Y-24344D01*
D49*
X-20961Y-8752D02*
G03*
X-21354Y-8752I-197J0D01*
G01*
D02*
G03*
X-20961Y-8752I197J0D01*
G01*
X-22929Y-3437D02*
Y500D01*
X-35528Y-3437D02*
Y500D01*
X-18799Y13780D02*
Y21654D01*
X-32185D02*
X-18799D01*
X-32185Y13780D02*
Y21654D01*
Y13780D02*
X-18799D01*
X-7087Y-71457D02*
X787D01*
Y-58071D01*
X-7087D02*
X787D01*
X-7087Y-71457D02*
Y-58071D01*
X2756Y-71457D02*
X10630D01*
Y-58071D01*
X2756D02*
X10630D01*
X2756Y-71457D02*
Y-58071D01*
X-6004Y-36516D02*
Y-28642D01*
Y-36516D02*
X7382D01*
Y-28642D01*
X-6004D02*
X7382D01*
X40551Y-60138D02*
X48425D01*
Y-46752D01*
X40551D02*
X48425D01*
X40551Y-60138D02*
Y-46752D01*
X33465Y-72047D02*
Y-64173D01*
X20079D02*
X33465D01*
X20079Y-72047D02*
Y-64173D01*
Y-72047D02*
X33465D01*
X62205Y-33465D02*
X70079D01*
Y-20079D01*
X62205D02*
X70079D01*
X62205Y-33465D02*
Y-20079D01*
X37795Y41732D02*
Y55118D01*
X29921Y41732D02*
X37795D01*
X29921D02*
Y55118D01*
X37795D01*
X20472Y41732D02*
Y55118D01*
X28346D01*
Y41732D02*
Y55118D01*
X20472Y41732D02*
X28346D01*
X33071Y-2756D02*
X46457D01*
X33071D02*
Y5118D01*
X46457D01*
Y-2756D02*
Y5118D01*
X11024Y41732D02*
Y55118D01*
X18898D01*
Y41732D02*
Y55118D01*
X11024Y41732D02*
X18898D01*
X28346Y57087D02*
Y70472D01*
X20472Y57087D02*
X28346D01*
X20472D02*
Y70472D01*
X28346D01*
X47244Y41732D02*
Y55118D01*
X39370Y41732D02*
X47244D01*
X39370D02*
Y55118D01*
X47244D01*
X18898Y57087D02*
Y70472D01*
X11024Y57087D02*
X18898D01*
X11024D02*
Y70472D01*
X18898D01*
X29921Y57087D02*
Y70472D01*
X37795D01*
Y57087D02*
Y70472D01*
X29921Y57087D02*
X37795D01*
X56406Y29004D02*
X69791D01*
Y21130D02*
Y29004D01*
X56406Y21130D02*
X69791D01*
X56406D02*
Y29004D01*
X-69398Y20996D02*
X-56012D01*
X-69398D02*
Y28870D01*
X-56012D01*
Y20996D02*
Y28870D01*
X23228Y-4724D02*
Y8661D01*
X31102D01*
Y-4724D02*
Y8661D01*
X23228Y-4724D02*
X31102D01*
X18504Y18110D02*
Y18766D01*
Y18438D01*
X16536D01*
X16864Y18110D01*
X16929Y-48819D02*
X17585D01*
X17257D01*
Y-46851D01*
X16929Y-47179D01*
X-29331Y27362D02*
Y28018D01*
Y27690D01*
X-31299D01*
X-30971Y27362D01*
X13517Y35826D02*
X12861Y35498D01*
X12205Y34842D01*
Y34186D01*
X12533Y33858D01*
X13189D01*
X13517Y34186D01*
Y34514D01*
X13189Y34842D01*
X12205D01*
X13517Y29133D02*
X12205D01*
Y28149D01*
X12861Y28477D01*
X13189D01*
X13517Y28149D01*
Y27493D01*
X13189Y27165D01*
X12533D01*
X12205Y27493D01*
X-8957Y-53839D02*
Y-51871D01*
X-9941Y-52855D01*
X-8629D01*
X-8727Y-66339D02*
X-10039D01*
X-8727Y-65027D01*
Y-64699D01*
X-9055Y-64371D01*
X-9711D01*
X-10039Y-64699D01*
X-9941Y-58498D02*
X-9613Y-58170D01*
X-8957D01*
X-8629Y-58498D01*
Y-58826D01*
X-8957Y-59154D01*
X-9285D01*
X-8957D01*
X-8629Y-59482D01*
Y-59810D01*
X-8957Y-60138D01*
X-9613D01*
X-9941Y-59810D01*
X-9547Y-73917D02*
X-8891D01*
X-9219D01*
Y-71949D01*
X-9547Y-72277D01*
D50*
X-25892Y20517D02*
X-25092D01*
X-25892Y14917D02*
X-25092D01*
X-350Y-65164D02*
Y-64364D01*
X-5950Y-65164D02*
Y-64364D01*
X9493Y-65164D02*
Y-64364D01*
X3893Y-65164D02*
Y-64364D01*
X289Y-35379D02*
X1089D01*
X289Y-29779D02*
X1089D01*
X47288Y-53845D02*
Y-53045D01*
X41688Y-53845D02*
Y-53045D01*
X26372Y-65310D02*
X27172D01*
X26372Y-70910D02*
X27172D01*
X68942Y-27172D02*
Y-26372D01*
X63342Y-27172D02*
Y-26372D01*
X36658Y48025D02*
Y48825D01*
X31058Y48025D02*
Y48825D01*
X21609Y48025D02*
Y48825D01*
X27209Y48025D02*
Y48825D01*
X39364Y-1619D02*
X40164D01*
X39364Y3981D02*
X40164D01*
X12161Y48025D02*
Y48825D01*
X17761Y48025D02*
Y48825D01*
X27209Y63380D02*
Y64179D01*
X21610Y63380D02*
Y64179D01*
X46107Y48025D02*
Y48825D01*
X40507Y48025D02*
Y48825D01*
X17761Y63380D02*
Y64179D01*
X12161Y63380D02*
Y64179D01*
X31058Y63380D02*
Y64179D01*
X36658Y63380D02*
Y64179D01*
X21153Y-45196D02*
X35753D01*
Y-18796D01*
X21153D02*
X35753D01*
X21153Y-45196D02*
Y-18796D01*
X62699Y27867D02*
X63499D01*
X62692Y22409D02*
X63492D01*
X-63105Y22133D02*
X-62305D01*
X-63098Y27591D02*
X-62298D01*
X24365Y1568D02*
Y2369D01*
X29823Y1562D02*
Y2362D01*
D51*
X65354Y33070D02*
Y30709D01*
X66535D01*
X66929Y31102D01*
Y32677D01*
X66535Y33070D01*
X65354D01*
X67716D02*
X69290D01*
Y32677D01*
X67716Y31102D01*
Y30709D01*
X-53936Y18110D02*
X-51575D01*
Y19291D01*
X-51968Y19684D01*
X-53543D01*
X-53936Y19291D01*
Y18110D01*
Y22046D02*
X-53543Y21259D01*
X-52755Y20472D01*
X-51968D01*
X-51575Y20865D01*
Y21652D01*
X-51968Y22046D01*
X-52362D01*
X-52755Y21652D01*
Y20472D01*
X9646Y-50985D02*
X9253Y-51378D01*
Y-52166D01*
X9646Y-52559D01*
X11221D01*
X11614Y-52166D01*
Y-51378D01*
X11221Y-50985D01*
X11614Y-49017D02*
X9253D01*
X10434Y-50198D01*
Y-48623D01*
X9351Y-42816D02*
X8958Y-43209D01*
Y-43996D01*
X9351Y-44390D01*
X10925D01*
X11319Y-43996D01*
Y-43209D01*
X10925Y-42816D01*
X8958Y-40454D02*
Y-42028D01*
X10138D01*
X9745Y-41241D01*
Y-40848D01*
X10138Y-40454D01*
X10925D01*
X11319Y-40848D01*
Y-41635D01*
X10925Y-42028D01*
X-30906Y-16831D02*
X-31300Y-16438D01*
X-32087D01*
X-32480Y-16831D01*
Y-18406D01*
X-32087Y-18799D01*
X-31300D01*
X-30906Y-18406D01*
X-30119Y-16438D02*
X-28545D01*
Y-16831D01*
X-30119Y-18406D01*
Y-18799D01*
X-11220Y-29331D02*
X-8858D01*
Y-28150D01*
X-9252Y-27756D01*
X-10826D01*
X-11220Y-28150D01*
Y-29331D01*
X-8858Y-26969D02*
Y-26182D01*
Y-26576D01*
X-11220D01*
X-10826Y-26969D01*
X-28543Y-37697D02*
X-26181D01*
Y-36516D01*
X-26575Y-36123D01*
X-28149D01*
X-28543Y-36516D01*
Y-37697D01*
X-26181Y-33761D02*
Y-35335D01*
X-27755Y-33761D01*
X-28149D01*
X-28543Y-34155D01*
Y-34942D01*
X-28149Y-35335D01*
X-21063Y-14272D02*
Y-16634D01*
X-19882D01*
X-19489Y-16240D01*
Y-14666D01*
X-19882Y-14272D01*
X-21063D01*
X-18702Y-14666D02*
X-18308Y-14272D01*
X-17521D01*
X-17127Y-14666D01*
Y-15060D01*
X-17521Y-15453D01*
X-17914D01*
X-17521D01*
X-17127Y-15847D01*
Y-16240D01*
X-17521Y-16634D01*
X-18308D01*
X-18702Y-16240D01*
X-20571Y-48032D02*
Y-50394D01*
X-19390D01*
X-18997Y-50000D01*
Y-48426D01*
X-19390Y-48032D01*
X-20571D01*
X-17029Y-50394D02*
Y-48032D01*
X-18209Y-49213D01*
X-16635D01*
X-57480Y-48425D02*
X-55118D01*
Y-47245D01*
X-55512Y-46851D01*
X-57086D01*
X-57480Y-47245D01*
Y-48425D01*
Y-44489D02*
Y-46064D01*
X-56299D01*
X-56692Y-45277D01*
Y-44883D01*
X-56299Y-44489D01*
X-55512D01*
X-55118Y-44883D01*
Y-45670D01*
X-55512Y-46064D01*
X-56102Y-23819D02*
X-53740D01*
X-54921D01*
Y-22245D01*
X-56102D01*
X-53740D01*
X-56102Y-19883D02*
Y-21457D01*
X-54921D01*
X-55314Y-20670D01*
Y-20277D01*
X-54921Y-19883D01*
X-54134D01*
X-53740Y-20277D01*
Y-21064D01*
X-54134Y-21457D01*
X-55806Y-34449D02*
X-53445D01*
X-54626D01*
Y-32875D01*
X-55806D01*
X-53445D01*
X-55806Y-30513D02*
X-55413Y-31300D01*
X-54626Y-32087D01*
X-53838D01*
X-53445Y-31694D01*
Y-30907D01*
X-53838Y-30513D01*
X-54232D01*
X-54626Y-30907D01*
Y-32087D01*
X-38977Y66928D02*
X-39764D01*
X-39371D01*
Y64960D01*
X-39764Y64567D01*
X-40158D01*
X-40551Y64960D01*
X-38190Y64567D02*
X-37403D01*
X-37796D01*
Y66928D01*
X-38190Y66535D01*
X-14862Y16437D02*
X-17224D01*
Y17618D01*
X-16830Y18011D01*
X-16043D01*
X-15649Y17618D01*
Y16437D01*
Y17224D02*
X-14862Y18011D01*
X-16830Y18798D02*
X-17224Y19192D01*
Y19979D01*
X-16830Y20373D01*
X-16436D01*
X-16043Y19979D01*
Y19586D01*
Y19979D01*
X-15649Y20373D01*
X-15256D01*
X-14862Y19979D01*
Y19192D01*
X-15256Y18798D01*
X48819Y35039D02*
X46457D01*
Y36220D01*
X46851Y36614D01*
X47638D01*
X48032Y36220D01*
Y35039D01*
Y35827D02*
X48819Y36614D01*
X46457Y38975D02*
X46851Y38188D01*
X47638Y37401D01*
X48425D01*
X48819Y37794D01*
Y38581D01*
X48425Y38975D01*
X48032D01*
X47638Y38581D01*
Y37401D01*
X44488Y35433D02*
X42127D01*
Y36614D01*
X42520Y37007D01*
X43308D01*
X43701Y36614D01*
Y35433D01*
Y36220D02*
X44488Y37007D01*
X42127Y37795D02*
Y39369D01*
X42520D01*
X44095Y37795D01*
X44488D01*
X41732Y7087D02*
Y9448D01*
X42913D01*
X43307Y9054D01*
Y8267D01*
X42913Y7874D01*
X41732D01*
X42519D02*
X43307Y7087D01*
X44094Y9054D02*
X44487Y9448D01*
X45274D01*
X45668Y9054D01*
Y8661D01*
X45274Y8267D01*
X45668Y7874D01*
Y7480D01*
X45274Y7087D01*
X44487D01*
X44094Y7480D01*
Y7874D01*
X44487Y8267D01*
X44094Y8661D01*
Y9054D01*
X44487Y8267D02*
X45274D01*
X9055Y46457D02*
X6694D01*
Y47637D01*
X7087Y48031D01*
X7874D01*
X8268Y47637D01*
Y46457D01*
Y47244D02*
X9055Y48031D01*
X8662Y48818D02*
X9055Y49212D01*
Y49999D01*
X8662Y50392D01*
X7087D01*
X6694Y49999D01*
Y49212D01*
X7087Y48818D01*
X7481D01*
X7874Y49212D01*
Y50392D01*
X21654Y72047D02*
Y74409D01*
X22834D01*
X23228Y74015D01*
Y73228D01*
X22834Y72834D01*
X21654D01*
X22441D02*
X23228Y72047D01*
X24015D02*
X24802D01*
X24408D01*
Y74409D01*
X24015Y74015D01*
X25983D02*
X26376Y74409D01*
X27164D01*
X27557Y74015D01*
Y72441D01*
X27164Y72047D01*
X26376D01*
X25983Y72441D01*
Y74015D01*
X52756Y34646D02*
X50394D01*
Y35826D01*
X50788Y36220D01*
X51575D01*
X51969Y35826D01*
Y34646D01*
Y35433D02*
X52756Y36220D01*
Y37007D02*
Y37794D01*
Y37401D01*
X50394D01*
X50788Y37007D01*
X52756Y38975D02*
Y39762D01*
Y39369D01*
X50394D01*
X50788Y38975D01*
X11811Y72047D02*
Y74409D01*
X12992D01*
X13385Y74015D01*
Y73228D01*
X12992Y72834D01*
X11811D01*
X12598D02*
X13385Y72047D01*
X14173D02*
X14960D01*
X14566D01*
Y74409D01*
X14173Y74015D01*
X17715Y72047D02*
X16140D01*
X17715Y73621D01*
Y74015D01*
X17321Y74409D01*
X16534D01*
X16140Y74015D01*
X42126Y61417D02*
X39764D01*
Y62598D01*
X40158Y62992D01*
X40945D01*
X41339Y62598D01*
Y61417D01*
Y62204D02*
X42126Y62992D01*
Y63779D02*
Y64566D01*
Y64172D01*
X39764D01*
X40158Y63779D01*
Y65747D02*
X39764Y66140D01*
Y66927D01*
X40158Y67321D01*
X40552D01*
X40945Y66927D01*
Y66534D01*
Y66927D01*
X41339Y67321D01*
X41732D01*
X42126Y66927D01*
Y66140D01*
X41732Y65747D01*
X16142Y-75984D02*
Y-73623D01*
X17323D01*
X17716Y-74016D01*
Y-74804D01*
X17323Y-75197D01*
X16142D01*
X16929D02*
X17716Y-75984D01*
X18503D02*
X19290D01*
X18897D01*
Y-73623D01*
X18503Y-74016D01*
X22045Y-73623D02*
X20471D01*
Y-74804D01*
X21258Y-74410D01*
X21652D01*
X22045Y-74804D01*
Y-75591D01*
X21652Y-75984D01*
X20865D01*
X20471Y-75591D01*
X4134Y-76772D02*
Y-74410D01*
X5315D01*
X5708Y-74804D01*
Y-75591D01*
X5315Y-75985D01*
X4134D01*
X4921D02*
X5708Y-76772D01*
X6495D02*
X7282D01*
X6889D01*
Y-74410D01*
X6495Y-74804D01*
X10037Y-74410D02*
X9250Y-74804D01*
X8463Y-75591D01*
Y-76378D01*
X8857Y-76772D01*
X9644D01*
X10037Y-76378D01*
Y-75985D01*
X9644Y-75591D01*
X8463D01*
X-6299Y-77067D02*
Y-74705D01*
X-5119D01*
X-4725Y-75099D01*
Y-75886D01*
X-5119Y-76280D01*
X-6299D01*
X-5512D02*
X-4725Y-77067D01*
X-3938D02*
X-3151D01*
X-3544D01*
Y-74705D01*
X-3938Y-75099D01*
X-1970Y-74705D02*
X-396D01*
Y-75099D01*
X-1970Y-76673D01*
Y-77067D01*
X40945Y-64567D02*
Y-62205D01*
X42126D01*
X42519Y-62599D01*
Y-63386D01*
X42126Y-63780D01*
X40945D01*
X41732D02*
X42519Y-64567D01*
X43306D02*
X44093D01*
X43700D01*
Y-62205D01*
X43306Y-62599D01*
X45274D02*
X45668Y-62205D01*
X46455D01*
X46848Y-62599D01*
Y-62993D01*
X46455Y-63386D01*
X46848Y-63780D01*
Y-64173D01*
X46455Y-64567D01*
X45668D01*
X45274Y-64173D01*
Y-63780D01*
X45668Y-63386D01*
X45274Y-62993D01*
Y-62599D01*
X45668Y-63386D02*
X46455D01*
X63386Y-18504D02*
Y-16142D01*
X64566D01*
X64960Y-16536D01*
Y-17323D01*
X64566Y-17717D01*
X63386D01*
X64173D02*
X64960Y-18504D01*
X65747D02*
X66534D01*
X66141D01*
Y-16142D01*
X65747Y-16536D01*
X67715Y-18110D02*
X68109Y-18504D01*
X68896D01*
X69289Y-18110D01*
Y-16536D01*
X68896Y-16142D01*
X68109D01*
X67715Y-16536D01*
Y-16930D01*
X68109Y-17323D01*
X69289D01*
X-4921Y-26378D02*
Y-24016D01*
X-3740D01*
X-3347Y-24410D01*
Y-25197D01*
X-3740Y-25591D01*
X-4921D01*
X-4134D02*
X-3347Y-26378D01*
X-986D02*
X-2560D01*
X-986Y-24804D01*
Y-24410D01*
X-1379Y-24016D01*
X-2166D01*
X-2560Y-24410D01*
X-198D02*
X195Y-24016D01*
X982D01*
X1376Y-24410D01*
Y-25984D01*
X982Y-26378D01*
X195D01*
X-198Y-25984D01*
Y-24410D01*
X-19586Y50000D02*
X-17618D01*
X-17224Y50394D01*
Y51181D01*
X-17618Y51574D01*
X-19586D01*
X-17224Y52361D02*
Y53149D01*
Y52755D01*
X-19586D01*
X-19192Y52361D01*
X43013Y23524D02*
X44980D01*
X45374Y23917D01*
Y24704D01*
X44980Y25098D01*
X43013D01*
X45374Y27459D02*
Y25885D01*
X43800Y27459D01*
X43406D01*
X43013Y27066D01*
Y26279D01*
X43406Y25885D01*
X24016Y-47639D02*
Y-49606D01*
X24409Y-50000D01*
X25196D01*
X25590Y-49606D01*
Y-47639D01*
X27558Y-50000D02*
Y-47639D01*
X26377Y-48819D01*
X27951D01*
X-37894Y-2361D02*
Y-1968D01*
X-38681Y-1181D01*
X-39468Y-1968D01*
Y-2361D01*
X-38681Y-1181D02*
Y0D01*
X-40255D02*
X-41042D01*
X-40649D01*
Y-2361D01*
X-40255Y-1968D01*
X48198Y-15090D02*
Y-13516D01*
X47804Y-13122D01*
X47017D01*
X46624Y-13516D01*
Y-15090D01*
X47017Y-15484D01*
X47804D01*
X47411Y-14696D02*
X48198Y-15484D01*
X47804D02*
X48198Y-15090D01*
X48985Y-15484D02*
X49772D01*
X49379D01*
Y-13122D01*
X48985Y-13516D01*
X22834Y-16536D02*
Y-14961D01*
X22441Y-14568D01*
X21653D01*
X21260Y-14961D01*
Y-16536D01*
X21653Y-16929D01*
X22441D01*
X22047Y-16142D02*
X22834Y-16929D01*
X22441D02*
X22834Y-16536D01*
X25196Y-16929D02*
X23621D01*
X25196Y-15355D01*
Y-14961D01*
X24802Y-14568D01*
X24015D01*
X23621Y-14961D01*
X24409Y-9055D02*
Y-6694D01*
X25590D01*
X25984Y-7087D01*
Y-7874D01*
X25590Y-8268D01*
X24409D01*
X25197D02*
X25984Y-9055D01*
X26771D02*
X27558D01*
X27165D01*
Y-6694D01*
X26771Y-7087D01*
X29919Y-9055D02*
Y-6694D01*
X28739Y-7874D01*
X30313D01*
M02*
