G04 Layer_Color=32768*
%FSLAX25Y25*%
%MOIN*%
G70*
G01*
G75*
%ADD29C,0.00787*%
%ADD49C,0.00394*%
D29*
X-35528Y-11311D02*
X-22929D01*
Y8374D01*
X-35528D02*
X-22929D01*
X-35528Y-11311D02*
Y8374D01*
D49*
X-2398Y-39461D02*
X5476D01*
Y-44382D02*
Y-39461D01*
X-2398Y-44382D02*
X5476D01*
X-2398D02*
Y-39461D01*
X-2524Y-51583D02*
X5350D01*
X-2524D02*
Y-46661D01*
X5350D01*
Y-51583D02*
Y-46661D01*
X-16402Y49909D02*
X-8528D01*
X-16402Y44988D02*
Y49909D01*
Y44988D02*
X-8528D01*
Y49909D01*
X-3705Y63591D02*
X4169D01*
X-3705Y58669D02*
Y63591D01*
Y58669D02*
X4169D01*
Y63591D01*
X-20213Y26370D02*
X-12339D01*
Y31291D01*
X-20213D02*
X-12339D01*
X-20213Y26370D02*
Y31291D01*
X-33598Y26173D02*
X-25724D01*
Y31094D01*
X-33598D02*
X-25724D01*
X-33598Y26173D02*
Y31094D01*
X-46295Y-10835D02*
X-38421D01*
Y-5913D01*
X-46295D02*
X-38421D01*
X-46295Y-10835D02*
Y-5913D01*
X-35835Y13618D02*
Y21492D01*
Y13618D02*
X-30913D01*
Y21492D01*
X-35835D02*
X-30913D01*
X-33465Y-55067D02*
X-29232Y-50839D01*
Y-55067D02*
Y-40799D01*
X-50295D02*
X-29232D01*
X-50295Y-55067D02*
Y-40799D01*
Y-55067D02*
X-29232D01*
X-50394Y-35039D02*
X-37795D01*
X-50394D02*
Y-28740D01*
X-37795D01*
Y-35039D02*
Y-28740D01*
X-50591Y-24803D02*
X-37992D01*
X-50591D02*
Y-18504D01*
X-37992D01*
Y-24803D02*
Y-18504D01*
X-33276Y-30449D02*
Y-22575D01*
X-28354D01*
Y-30449D02*
Y-22575D01*
X-33276Y-30449D02*
X-28354D01*
X-22047Y-20079D02*
X-20472Y-18504D01*
X-22047Y-22047D02*
Y-18504D01*
Y-22047D02*
X-15354D01*
Y-18504D01*
X-22047D02*
X-15354D01*
X-21673Y-41429D02*
X-14980D01*
Y-46350D02*
Y-41429D01*
X-21673Y-46350D02*
X-14980D01*
X-21673D02*
Y-41429D01*
Y-43083D02*
X-20020Y-41429D01*
X-17126Y-37500D02*
X-15551Y-35925D01*
Y-37500D02*
Y-33957D01*
X-22244D02*
X-15551D01*
X-22244Y-37500D02*
Y-33957D01*
Y-37500D02*
X-15551D01*
X-22323Y-30224D02*
X-15630D01*
X-22323D02*
Y-25303D01*
X-15630D01*
Y-30224D02*
Y-25303D01*
X-17283Y-30224D02*
X-15630Y-28571D01*
X19587Y-52854D02*
X21555Y-50886D01*
X19587Y-62697D02*
Y-50886D01*
Y-62697D02*
X31398D01*
Y-50886D01*
X19587D02*
X31398D01*
X21752Y22126D02*
X26752Y17126D01*
X21752Y18803D02*
X41043D01*
Y32480D01*
X21752D02*
X41043D01*
X21752Y18803D02*
Y32480D01*
X43762Y-53924D02*
X60698Y-29736D01*
X27481Y-6477D02*
X60698Y-29736D01*
X10544Y-30665D02*
X27481Y-6477D01*
X10544Y-30665D02*
X43762Y-53924D01*
X39666Y-51056D02*
X46630Y-49828D01*
X48189Y-32803D02*
X55709Y-25284D01*
Y-32803D02*
Y-21307D01*
X50590D02*
X55709D01*
X50590Y-32803D02*
Y-21307D01*
Y-32803D02*
X55709D01*
M02*
