G04 Layer_Physical_Order=3*
G04 Layer_Color=128*
%FSLAX25Y25*%
%MOIN*%
G70*
G01*
G75*
%ADD39C,0.04000*%
%ADD40C,0.09512*%
%ADD42C,0.43370*%
%ADD43C,0.07543*%
G04:AMPARAMS|DCode=44|XSize=95.433mil|YSize=95.433mil|CornerRadius=0mil|HoleSize=0mil|Usage=FLASHONLY|Rotation=0.000|XOffset=0mil|YOffset=0mil|HoleType=Round|Shape=Relief|Width=10mil|Gap=10mil|Entries=4|*
%AMTHD44*
7,0,0,0.09543,0.07543,0.01000,45*
%
%ADD44THD44*%
%ADD45C,0.04787*%
G04:AMPARAMS|DCode=46|XSize=67.874mil|YSize=67.874mil|CornerRadius=0mil|HoleSize=0mil|Usage=FLASHONLY|Rotation=0.000|XOffset=0mil|YOffset=0mil|HoleType=Round|Shape=Relief|Width=10mil|Gap=10mil|Entries=4|*
%AMTHD46*
7,0,0,0.06787,0.04787,0.01000,45*
%
%ADD46THD46*%
%ADD47C,0.05575*%
G36*
X-62916Y14075D02*
X-61618Y13841D01*
X-60751Y13583D01*
X-59335Y13161D01*
X-58290Y12598D01*
X-56371Y11565D01*
X-53910Y9104D01*
X-52157Y6747D01*
X-51302Y4528D01*
X-50662Y1821D01*
Y-689D01*
Y-2264D01*
X-51007Y-3937D01*
X-51597Y-5315D01*
X-52157Y-6988D01*
X-53270Y-8563D01*
X-53910Y-9468D01*
X-55008Y-10566D01*
X-56076Y-11368D01*
X-57311Y-12297D01*
X-58684Y-12992D01*
X-59767Y-13484D01*
X-61600Y-14042D01*
X-63954Y-14370D01*
X-79528D01*
X-79802Y-12872D01*
X-80032Y-10956D01*
X-80512Y-6960D01*
X-80831Y-2264D01*
Y2663D01*
X-80662Y6955D01*
X-80315Y10630D01*
X-79977Y12533D01*
X-79454Y14173D01*
X-64786D01*
X-62916Y14075D01*
D02*
G37*
G36*
X79616Y13819D02*
X79708Y13227D01*
X79804Y12636D01*
X79928Y11825D01*
X80305Y8897D01*
X80666Y4565D01*
X80807Y2461D01*
Y394D01*
Y-1969D01*
X80709Y-4232D01*
X80305Y-8628D01*
X80108Y-10454D01*
X79897Y-12406D01*
X79460Y-14233D01*
X64893D01*
X63023Y-14135D01*
X61725Y-13901D01*
X60858Y-13643D01*
X59442Y-13221D01*
X58397Y-12658D01*
X56478Y-11625D01*
X54017Y-9164D01*
X52264Y-6807D01*
X51409Y-4587D01*
X50769Y-1881D01*
Y629D01*
Y2204D01*
X51113Y3877D01*
X51704Y5255D01*
X52264Y6928D01*
X53377Y8503D01*
X54017Y9408D01*
X55115Y10506D01*
X56182Y11308D01*
X57418Y12237D01*
X58791Y12932D01*
X59873Y13424D01*
X61707Y13983D01*
X64061Y14310D01*
X79521D01*
X79616Y13819D01*
D02*
G37*
D39*
X2642Y80709D02*
X7915Y80363D01*
X-2642Y80709D02*
X2642D01*
X-7915Y80363D02*
X-2642Y80709D01*
X-13154Y79673D02*
X-7915Y80363D01*
X-18337Y78642D02*
X-13154Y79673D01*
X-23441Y77275D02*
X-18337Y78642D01*
X-28445Y75576D02*
X-23441Y77275D01*
X-33327Y73554D02*
X-28445Y75576D01*
X-38066Y71217D02*
X-33327Y73554D01*
X-42643Y68575D02*
X-38066Y71217D01*
X-47036Y65639D02*
X-42643Y68575D01*
X-51228Y62422D02*
X-47036Y65639D01*
X-55201Y58938D02*
X-51228Y62422D01*
X-58938Y55201D02*
X-55201Y58938D01*
X-62422Y51228D02*
X-58938Y55201D01*
X-65639Y47036D02*
X-62422Y51228D01*
X-68575Y42643D02*
X-65639Y47036D01*
X-71217Y38066D02*
X-68575Y42643D01*
X-73554Y33327D02*
X-71217Y38066D01*
X-75576Y28445D02*
X-73554Y33327D01*
X-77275Y23441D02*
X-75576Y28445D01*
X-78642Y18337D02*
X-77275Y23441D01*
X-79497Y14038D02*
X-78642Y18337D01*
X-79497Y14038D02*
X-79454Y14173D01*
X-64786D01*
X-62916Y14075D01*
X-61618Y13841D01*
X-60751Y13583D01*
X-59335Y13161D01*
X-58290Y12598D01*
X-56371Y11565D01*
X-53910Y9104D01*
X-52157Y6747D01*
X-51302Y4528D01*
X-50662Y1821D01*
Y-689D02*
Y1821D01*
Y-2264D02*
Y-689D01*
X-51007Y-3937D02*
X-50662Y-2264D01*
X-51597Y-5315D02*
X-51007Y-3937D01*
X-52157Y-6988D02*
X-51597Y-5315D01*
X-53270Y-8563D02*
X-52157Y-6988D01*
X-53910Y-9468D02*
X-53270Y-8563D01*
X-55008Y-10566D02*
X-53910Y-9468D01*
X-56076Y-11368D02*
X-55008Y-10566D01*
X-57311Y-12297D02*
X-56076Y-11368D01*
X-58684Y-12992D02*
X-57311Y-12297D01*
X-59767Y-13484D02*
X-58684Y-12992D01*
X-61600Y-14042D02*
X-59767Y-13484D01*
X-63954Y-14370D02*
X-61600Y-14042D01*
X-79431Y-14370D02*
X-63954D01*
X-79431D02*
X-78642Y-18337D01*
X-77275Y-23441D01*
X-75576Y-28445D01*
X-73554Y-33327D01*
X-71217Y-38066D01*
X-68575Y-42643D01*
X-65639Y-47036D01*
X-62422Y-51228D01*
X-58938Y-55201D01*
X-55201Y-58938D01*
X-51228Y-62422D01*
X-47036Y-65639D01*
X-42643Y-68575D01*
X-38066Y-71217D01*
X-33327Y-73554D01*
X-28445Y-75576D01*
X-23441Y-77275D01*
X-18337Y-78642D01*
X-13154Y-79673D01*
X-7915Y-80363D01*
X-2642Y-80709D01*
X2642D01*
X7915Y-80363D01*
X13154Y-79673D01*
X18337Y-78642D01*
X23441Y-77275D01*
X28445Y-75576D01*
X33327Y-73554D01*
X38066Y-71217D01*
X42643Y-68575D01*
X47036Y-65639D01*
X51228Y-62422D01*
X55201Y-58938D01*
X58938Y-55201D01*
X62422Y-51228D01*
X65639Y-47036D01*
X68575Y-42643D01*
X71217Y-38066D01*
X73554Y-33327D01*
X75576Y-28445D01*
X77275Y-23441D01*
X78642Y-18337D01*
X79459Y-14233D01*
X64893D02*
X79459D01*
X63023Y-14135D02*
X64893Y-14233D01*
X61725Y-13901D02*
X63023Y-14135D01*
X60858Y-13643D02*
X61725Y-13901D01*
X59442Y-13221D02*
X60858Y-13643D01*
X58397Y-12658D02*
X59442Y-13221D01*
X56478Y-11625D02*
X58397Y-12658D01*
X54017Y-9164D02*
X56478Y-11625D01*
X52264Y-6807D02*
X54017Y-9164D01*
X51409Y-4587D02*
X52264Y-6807D01*
X50769Y-1881D02*
X51409Y-4587D01*
X50769Y-1881D02*
Y629D01*
Y2204D01*
X51113Y3877D01*
X51704Y5255D01*
X52264Y6928D01*
X53377Y8503D01*
X54017Y9408D01*
X55115Y10506D01*
X56182Y11308D01*
X57418Y12237D01*
X58791Y12932D01*
X59873Y13424D01*
X61707Y13983D01*
X64061Y14310D01*
X79443D01*
X78642Y18337D02*
X79443Y14310D01*
X77275Y23441D02*
X78642Y18337D01*
X75576Y28445D02*
X77275Y23441D01*
X73554Y33327D02*
X75576Y28445D01*
X71217Y38066D02*
X73554Y33327D01*
X68575Y42643D02*
X71217Y38066D01*
X65639Y47036D02*
X68575Y42643D01*
X62422Y51228D02*
X65639Y47036D01*
X58938Y55201D02*
X62422Y51228D01*
X55201Y58938D02*
X58938Y55201D01*
X51228Y62422D02*
X55201Y58938D01*
X47036Y65639D02*
X51228Y62422D01*
X42643Y68575D02*
X47036Y65639D01*
X38066Y71217D02*
X42643Y68575D01*
X33327Y73554D02*
X38066Y71217D01*
X28445Y75576D02*
X33327Y73554D01*
X23441Y77275D02*
X28445Y75576D01*
X18337Y78642D02*
X23441Y77275D01*
X13154Y79673D02*
X18337Y78642D01*
X7915Y80363D02*
X13154Y79673D01*
D40*
X3796Y72431D02*
D03*
X-28340Y-66765D02*
D03*
X-64625Y-32928D02*
D03*
X57926Y43650D02*
D03*
X-61024Y39370D02*
D03*
D42*
X0Y0D02*
D03*
D43*
X-43996Y56890D02*
D03*
Y46890D02*
D03*
Y36890D02*
D03*
Y26890D02*
D03*
Y16890D02*
D03*
D44*
Y6890D02*
D03*
D45*
X-26772Y394D02*
D03*
X-39370Y-12992D02*
D03*
X7087Y61024D02*
D03*
X-37992Y20965D02*
D03*
X-36614Y28248D02*
D03*
X-20669Y33858D02*
D03*
X17323Y39370D02*
D03*
X16535Y-68110D02*
D03*
X-4331Y55905D02*
D03*
X-23327Y55906D02*
D03*
X-26476Y56496D02*
D03*
X-36516Y36909D02*
D03*
X-9154Y52165D02*
D03*
X-22441Y49606D02*
D03*
X16929Y-62992D02*
D03*
X24803Y-37795D02*
D03*
X28740Y-37008D02*
D03*
X-13780Y-47539D02*
D03*
X-17520Y-66142D02*
D03*
X6890Y-54921D02*
D03*
X-7283Y-32579D02*
D03*
X23720Y-52067D02*
D03*
X-45866Y-12500D02*
D03*
X-5610Y-49213D02*
D03*
X-5512Y-41831D02*
D03*
X-8760Y-68504D02*
D03*
X-53937Y24803D02*
D03*
X38780Y9449D02*
D03*
X28740Y29528D02*
D03*
X9449Y52362D02*
D03*
X-17717Y-53051D02*
D03*
X71260Y-23228D02*
D03*
X50394Y-49606D02*
D03*
X2362Y29134D02*
D03*
X39764Y59842D02*
D03*
X50394Y-11024D02*
D03*
X46063Y-7087D02*
D03*
X71653Y25197D02*
D03*
X54724Y24803D02*
D03*
X11811Y-56693D02*
D03*
X46850Y-31496D02*
D03*
X-17323Y23622D02*
D03*
D46*
X-4724Y66535D02*
D03*
X-4331Y38583D02*
D03*
X-26476Y24016D02*
D03*
X37402Y-43307D02*
D03*
X23228Y-34646D02*
D03*
X-17520Y-59547D02*
D03*
X9843Y59055D02*
D03*
X-71260Y24803D02*
D03*
D47*
X20079Y35433D02*
D03*
X14567Y-47638D02*
D03*
M02*
