G04 Layer_Color=32768*
%FSLAX25Y25*%
%MOIN*%
G70*
G01*
G75*
%ADD50C,0.00600*%
%ADD79C,0.01000*%
D50*
X-51451Y87444D02*
X-55450D01*
X-51451Y91443D01*
Y92443D01*
X-52451Y93442D01*
X-54450D01*
X-55450Y92443D01*
X-49452D02*
X-48452Y93442D01*
X-46453D01*
X-45453Y92443D01*
Y88444D01*
X-46453Y87444D01*
X-48452D01*
X-49452Y88444D01*
Y92443D01*
X-43454Y87444D02*
Y88444D01*
X-42454D01*
Y87444D01*
X-43454D01*
X-34457Y93442D02*
X-38456D01*
Y90443D01*
X-36456Y91443D01*
X-35456D01*
X-34457Y90443D01*
Y88444D01*
X-35456Y87444D01*
X-37456D01*
X-38456Y88444D01*
X-32457Y92443D02*
X-31458Y93442D01*
X-29458D01*
X-28459Y92443D01*
Y88444D01*
X-29458Y87444D01*
X-31458D01*
X-32457Y88444D01*
Y92443D01*
X-11094Y102897D02*
X-15093D01*
X-11094Y106896D01*
Y107895D01*
X-12094Y108895D01*
X-14093D01*
X-15093Y107895D01*
X-5096Y108895D02*
X-7095Y107895D01*
X-9095Y105896D01*
Y103897D01*
X-8095Y102897D01*
X-6096D01*
X-5096Y103897D01*
Y104896D01*
X-6096Y105896D01*
X-9095D01*
X-3097Y102897D02*
Y103897D01*
X-2097D01*
Y102897D01*
X-3097D01*
X1902Y107895D02*
X2901Y108895D01*
X4901D01*
X5900Y107895D01*
Y103897D01*
X4901Y102897D01*
X2901D01*
X1902Y103897D01*
Y107895D01*
X7900D02*
X8899Y108895D01*
X10899D01*
X11898Y107895D01*
Y103897D01*
X10899Y102897D01*
X8899D01*
X7900Y103897D01*
Y107895D01*
D79*
X-80709Y0D02*
Y92043D01*
X0Y-18185D02*
Y92043D01*
X-80709Y91043D02*
X-57050D01*
X-26859D02*
X0D01*
X-80709D02*
X-74709Y89043D01*
X-80709Y91043D02*
X-74709Y93043D01*
X-6000D02*
X0Y91043D01*
X-6000Y89043D02*
X0Y91043D01*
X51181Y1591D02*
Y107496D01*
X-51175Y1591D02*
Y107496D01*
X13498Y106496D02*
X51181D01*
X-51175D02*
X-16693D01*
X45181Y108496D02*
X51181Y106496D01*
X45181Y104496D02*
X51181Y106496D01*
X-51175D02*
X-45175Y104496D01*
X-51175Y106496D02*
X-45175Y108496D01*
M02*
