G04 Layer_Physical_Order=1*
G04 Layer_Color=255*
%FSLAX25Y25*%
%MOIN*%
G70*
G01*
G75*
%ADD10R,0.04331X0.05787*%
%ADD11C,0.04724*%
%ADD12R,0.05600X0.02000*%
%ADD13R,0.02000X0.05600*%
%ADD14R,0.04921X0.06299*%
%ADD15R,0.04000X0.05500*%
%ADD16R,0.08661X0.08465*%
%ADD17R,0.04724X0.07087*%
%ADD18R,0.05787X0.04331*%
%ADD19R,0.04724X0.03150*%
%ADD20R,0.03307X0.01811*%
%ADD21R,0.05500X0.04000*%
%ADD22R,0.06181X0.07402*%
%ADD23R,0.05512X0.01181*%
%ADD24R,0.02559X0.06004*%
%ADD25R,0.04921X0.02362*%
%ADD26R,0.06300X0.03300*%
%ADD27R,0.06300X0.12200*%
%ADD28C,0.01181*%
%ADD29C,0.00787*%
%ADD30C,0.01575*%
%ADD31C,0.02362*%
%ADD32C,0.09843*%
%ADD33C,0.10000*%
%ADD34C,0.06000*%
%ADD35C,0.05906*%
%ADD36R,0.05906X0.05906*%
%ADD37C,0.01772*%
%ADD38C,0.03543*%
D10*
X-1650Y-41921D02*
D03*
X4728D02*
D03*
X4602Y-49122D02*
D03*
X-1776D02*
D03*
D11*
X9843Y37402D02*
D03*
X-13287Y-59547D02*
D03*
Y-66043D02*
D03*
Y-73032D02*
D03*
X9055Y26378D02*
D03*
X-13287Y-53248D02*
D03*
D12*
X-31772Y34002D02*
D03*
Y37102D02*
D03*
Y40302D02*
D03*
Y43402D02*
D03*
Y46602D02*
D03*
Y49702D02*
D03*
Y52902D02*
D03*
Y56002D02*
D03*
X828D02*
D03*
Y52902D02*
D03*
Y49702D02*
D03*
Y46602D02*
D03*
Y43402D02*
D03*
Y40302D02*
D03*
Y37102D02*
D03*
Y34002D02*
D03*
D13*
X-26472Y61302D02*
D03*
X-23372D02*
D03*
X-20172D02*
D03*
X-17072D02*
D03*
X-13872D02*
D03*
X-10772D02*
D03*
X-7572D02*
D03*
X-4472D02*
D03*
Y28702D02*
D03*
X-7572D02*
D03*
X-10772D02*
D03*
X-13872D02*
D03*
X-17072D02*
D03*
X-20172D02*
D03*
X-23372D02*
D03*
X-26472D02*
D03*
D14*
X-33559Y-8752D02*
D03*
Y5815D02*
D03*
X-24898D02*
D03*
Y-8752D02*
D03*
D15*
X-21792Y17717D02*
D03*
X-29192D02*
D03*
X-3011Y-32579D02*
D03*
X4389D02*
D03*
X30472Y-68110D02*
D03*
X23072D02*
D03*
X36064Y1181D02*
D03*
X43464D02*
D03*
X66799Y25067D02*
D03*
X59399D02*
D03*
X-66405Y24933D02*
D03*
X-59005D02*
D03*
D16*
X-48425Y-47933D02*
D03*
X-31102D02*
D03*
D17*
X-38386Y-31890D02*
D03*
X-49803D02*
D03*
X-38583Y-21654D02*
D03*
X-50000D02*
D03*
D18*
X-30815Y-29701D02*
D03*
Y-23323D02*
D03*
D19*
X-15354Y-20276D02*
D03*
X-22047D02*
D03*
X-22244Y-35728D02*
D03*
X-15551D02*
D03*
D20*
X-22854Y-43890D02*
D03*
X-13799D02*
D03*
X-14449Y-27764D02*
D03*
X-23504D02*
D03*
D21*
X-3150Y-68464D02*
D03*
Y-61064D02*
D03*
X6693Y-68464D02*
D03*
Y-61064D02*
D03*
X44488Y-57145D02*
D03*
Y-49745D02*
D03*
X66142Y-30472D02*
D03*
Y-23072D02*
D03*
X33858Y44725D02*
D03*
Y52125D02*
D03*
X24409D02*
D03*
Y44725D02*
D03*
X14961Y52125D02*
D03*
Y44725D02*
D03*
X24409Y60079D02*
D03*
Y67479D02*
D03*
X43307Y44725D02*
D03*
Y52125D02*
D03*
X14961Y60079D02*
D03*
Y67479D02*
D03*
X33858D02*
D03*
Y60079D02*
D03*
X27165Y5669D02*
D03*
Y-1732D02*
D03*
D22*
X25492Y-56791D02*
D03*
D23*
X34154Y-52854D02*
D03*
Y-54823D02*
D03*
Y-56791D02*
D03*
Y-58760D02*
D03*
Y-60728D02*
D03*
X16831D02*
D03*
Y-58760D02*
D03*
Y-56791D02*
D03*
Y-54823D02*
D03*
Y-52854D02*
D03*
D24*
X23898Y35480D02*
D03*
X28898D02*
D03*
X33898D02*
D03*
X38898D02*
D03*
Y14126D02*
D03*
X33898D02*
D03*
X28898D02*
D03*
X23898D02*
D03*
D25*
X49016Y-27055D02*
D03*
X57284Y-19535D02*
D03*
Y-34575D02*
D03*
D26*
X15853Y-22896D02*
D03*
Y-31996D02*
D03*
Y-41096D02*
D03*
D27*
X41053Y-31996D02*
D03*
D28*
X-26476Y24016D02*
X-26472Y24021D01*
Y28702D01*
X-39370Y-12992D02*
X-37799D01*
X-33559Y-8752D01*
X-4472Y61302D02*
Y66283D01*
X-23254Y55978D02*
Y61083D01*
X-26476Y56496D02*
Y60961D01*
X-17520Y-66142D02*
X-13386D01*
X-17520Y-59547D02*
X-13287D01*
X33858Y67479D02*
X36851D01*
X43307Y61024D01*
Y52125D02*
Y61024D01*
X49016Y-27055D02*
Y-24606D01*
X15853Y-22896D02*
X47306D01*
X49016Y-24606D01*
X5554Y-41096D02*
X15853D01*
X4728Y-41921D02*
X5554Y-41096D01*
X15853Y-31996D02*
X41053D01*
X16535Y-68110D02*
X23072D01*
X23072Y-68110D01*
X43632Y-34575D02*
X57284D01*
X41053Y-31996D02*
X43632Y-34575D01*
X57284D02*
X62039D01*
X66142Y-30472D01*
X60820Y-23072D02*
X66142D01*
X57284Y-19535D02*
X60820Y-23072D01*
X66298Y-23228D02*
X71260D01*
X66142Y-23072D02*
X66298Y-23228D01*
X828Y30668D02*
Y34002D01*
Y30668D02*
X2362Y29134D01*
X9843Y59055D02*
X13936D01*
X14961Y60079D01*
X946Y55783D02*
X1068Y55906D01*
X54724Y24803D02*
X59135D01*
X59399Y25067D01*
X66928Y25197D02*
X71653D01*
X-58875Y24803D02*
X-53937D01*
X-59005Y24933D02*
X-58875Y24803D01*
X828Y37102D02*
X9543D01*
X9843Y37402D01*
X15354D02*
X17323Y39370D01*
X9843Y37402D02*
X15354D01*
X27165Y-1732D02*
X33151D01*
X36064Y1181D01*
X23898Y8936D02*
Y14126D01*
Y8936D02*
X27165Y5669D01*
X23898Y14126D02*
Y19567D01*
X26378Y22047D01*
X31496D01*
X38898Y29449D01*
Y35480D01*
X46850Y-31496D02*
Y-29221D01*
X49016Y-27055D01*
X-13872Y28702D02*
Y33373D01*
X-8662Y38583D01*
X-4331D01*
D29*
X-24902Y7094D02*
X-24500D01*
X-26870Y5126D02*
X-24902Y7094D01*
X-16954Y28483D02*
Y31915D01*
X-39790Y52683D02*
X-31654D01*
X-26772Y394D02*
Y5028D01*
X-26870Y5126D02*
X-26772Y5028D01*
X-34895Y34002D02*
X-31772D01*
X-36614Y32283D02*
X-34895Y34002D01*
X-36614Y28248D02*
Y32283D01*
X-21792Y21318D02*
X-20054Y23056D01*
Y28483D01*
X-21792Y17717D02*
Y21318D01*
X-18898Y33858D02*
X-16954Y31915D01*
X-20669Y33858D02*
X-18898D01*
X-29192Y17717D02*
X-23254Y23654D01*
Y28483D01*
X-13780Y28458D02*
X-13754Y28483D01*
X-23327Y55906D02*
X-23254Y55978D01*
X-26476Y60961D02*
X-26354Y61083D01*
X-43996Y56890D02*
X-39790Y52683D01*
X-36516Y36909D02*
X-36490Y36883D01*
X16929Y-62992D02*
Y-60827D01*
X-13799Y-47520D02*
X-13780Y-47539D01*
X-13799Y-47520D02*
Y-43890D01*
X-13386Y-66142D02*
X-13287Y-66043D01*
X6890Y-54921D02*
X7185Y-54626D01*
X16831Y-54823D02*
Y-54626D01*
Y-60728D02*
X16929Y-60827D01*
X-29331Y-3043D02*
Y10335D01*
Y-3043D02*
X-24902Y-7472D01*
X-29331Y10335D02*
X-27461Y12205D01*
X-23425D01*
X-7283Y-32579D02*
X-3011D01*
X6693Y-68464D02*
X10473D01*
X11713Y-67224D01*
Y-61811D01*
X12795Y-60728D01*
X16831D01*
X8335Y-52854D02*
X16831D01*
X6693Y-61064D02*
X8997Y-58760D01*
X16831D01*
X42873D02*
X44488Y-57145D01*
X34154Y-58760D02*
X42873D01*
X23720Y-55020D02*
X25492Y-56791D01*
X23720Y-55020D02*
Y-52067D01*
X27461Y-54823D02*
X34154D01*
Y-52854D01*
X37263Y-49745D01*
X44488D01*
X-3190Y-68504D02*
X-3150Y-68464D01*
X-8760Y-68504D02*
X-3190D01*
X-33563Y7094D02*
Y15157D01*
X-31004Y17717D01*
X-29192D01*
X-23425Y12205D02*
X-21792Y13838D01*
Y17717D01*
X-1740Y-41831D02*
X-1650Y-41921D01*
X-5512Y-41831D02*
X-1740D01*
X-1866Y-49213D02*
X-1776Y-49122D01*
X-5610Y-49213D02*
X-1866D01*
X-36490Y36883D02*
X-31654D01*
X31102Y9449D02*
X33465D01*
X36064Y6850D01*
X28898Y11654D02*
Y14126D01*
X36064Y1181D02*
Y6850D01*
X28898Y11654D02*
X31102Y9449D01*
X43307Y44725D02*
X47007D01*
X33898Y14126D02*
Y18543D01*
X38780Y9449D02*
Y14008D01*
X26378Y40945D02*
X32677D01*
X33898Y39724D01*
X24409Y42913D02*
Y44725D01*
Y42913D02*
X26378Y40945D01*
X33898Y35480D02*
Y39724D01*
Y29469D02*
Y35480D01*
X30020Y25591D02*
X33898Y29469D01*
X7087Y25591D02*
X30020D01*
X-10654Y24434D02*
Y28483D01*
X4724Y23228D02*
X7087Y25591D01*
X-10654Y24434D02*
X-9449Y23228D01*
X4724D01*
X28740Y35323D02*
X28898Y35480D01*
X28740Y29528D02*
Y35323D01*
X14724Y52362D02*
X14961Y52125D01*
X9449Y52362D02*
X14724D01*
X34154Y-64428D02*
Y-60728D01*
X30472Y-68110D02*
X34154Y-64428D01*
X7185Y-54626D02*
X16831D01*
X4603Y-49122D02*
X8335Y-52854D01*
X47007Y44725D02*
X48819Y42913D01*
X33898Y18543D02*
X48819Y33465D01*
Y42913D01*
X11909Y-56791D02*
X16831D01*
X11811Y-56693D02*
X11909Y-56791D01*
D30*
X-28340Y-66765D02*
Y-58077D01*
X-49803Y-37106D02*
Y-31890D01*
Y-37106D02*
X-47441Y-39469D01*
X-34646D01*
X-31102Y-43012D01*
Y-47933D02*
Y-43012D01*
Y-55315D02*
Y-47933D01*
Y-55315D02*
X-28340Y-58077D01*
X-3150Y-61064D02*
X6693D01*
Y-71260D02*
Y-68464D01*
X4921Y-73032D02*
X6693Y-71260D01*
X-13287Y-73032D02*
X4921D01*
X-22854Y-36339D02*
X-22244Y-35728D01*
X-22854Y-43890D02*
Y-36339D01*
X-23504Y-21732D02*
X-22047Y-20276D01*
X-23504Y-27764D02*
Y-21732D01*
X-15551Y-35728D02*
X-14449Y-34626D01*
Y-27764D01*
X33858Y44725D02*
X43307D01*
X14961Y60079D02*
X24409D01*
X24409Y52125D02*
X33858D01*
Y60079D01*
X14961Y44725D02*
X24409D01*
X24409Y67479D02*
X33858D01*
X-9055Y-48622D02*
Y-37992D01*
X2756Y-54528D02*
X4602Y-52681D01*
X-11319Y-35728D02*
X-9055Y-37992D01*
X-15551Y-35728D02*
X-11319D01*
X-13484Y-53051D02*
X-9055Y-48622D01*
X-12008Y-54528D02*
X2756D01*
X-17717Y-53051D02*
X-13484D01*
X20079Y35433D02*
X23850D01*
X23898Y35480D01*
X13083Y-49122D02*
X14567Y-47638D01*
X4602Y-49122D02*
X4602D01*
X4603D01*
X13083D01*
X4602Y-52681D02*
Y-49122D01*
X44627Y-49606D02*
X50394D01*
X44488Y-49745D02*
X44627Y-49606D01*
X34095Y59842D02*
X39764D01*
X33858Y60079D02*
X33858Y60079D01*
X34095Y59842D01*
X-4331Y55905D02*
X824D01*
X946Y55783D01*
X43464Y1181D02*
X44488Y2206D01*
Y19291D01*
X53543Y28346D01*
Y39268D01*
X57926Y43650D01*
X66799Y25067D02*
X66928Y25197D01*
X-66405Y24933D02*
Y33989D01*
X-61024Y39370D01*
D31*
X4389Y-41582D02*
X4728Y-41921D01*
X4389Y-41582D02*
Y-32579D01*
X-3011D02*
Y-27698D01*
X-10433Y-20276D02*
X-3011Y-27698D01*
X-15354Y-20276D02*
X-10433D01*
X-30815Y-33752D02*
Y-29701D01*
Y-33752D02*
X-28839Y-35728D01*
X-22244D01*
X-38386Y-31890D02*
X-36197Y-29701D01*
X-30815D01*
Y-23323D02*
X-27768Y-20276D01*
X-22047D01*
X-38583Y-21654D02*
X-36913Y-23323D01*
X-30815D01*
X-64625Y-32928D02*
X-49621Y-47933D01*
X-48425D01*
X-64625Y-32928D02*
Y-26633D01*
X-59646Y-21654D01*
X-50000D01*
X8748Y67479D02*
X14961D01*
X3796Y72431D02*
X8748Y67479D01*
D32*
X3796Y72431D02*
D03*
X-64625Y-32928D02*
D03*
X57926Y43650D02*
D03*
X-61024Y39370D02*
D03*
D33*
X-28340Y-66765D02*
D03*
D34*
X0Y0D02*
D03*
D35*
X-43996Y56890D02*
D03*
Y46890D02*
D03*
Y36890D02*
D03*
Y26890D02*
D03*
Y16890D02*
D03*
D36*
Y6890D02*
D03*
D37*
X-26772Y394D02*
D03*
X-39370Y-12992D02*
D03*
X-4724Y66535D02*
D03*
X7087Y61024D02*
D03*
X-37992Y20965D02*
D03*
X-36614Y28248D02*
D03*
X-20669Y33858D02*
D03*
X-4331Y38583D02*
D03*
X-26476Y24016D02*
D03*
X17323Y39370D02*
D03*
X16535Y-68110D02*
D03*
X-4331Y55905D02*
D03*
X-23327Y55906D02*
D03*
X-26476Y56496D02*
D03*
X-36516Y36909D02*
D03*
X-9154Y52165D02*
D03*
X-22441Y49606D02*
D03*
X16929Y-62992D02*
D03*
X37402Y-43307D02*
D03*
X24803Y-37795D02*
D03*
X28740Y-37008D02*
D03*
X23228Y-34646D02*
D03*
X-13780Y-47539D02*
D03*
X-17520Y-66142D02*
D03*
Y-59547D02*
D03*
X6890Y-54921D02*
D03*
X-7283Y-32579D02*
D03*
X23720Y-52067D02*
D03*
X-45866Y-12500D02*
D03*
X9843Y59055D02*
D03*
X-5610Y-49213D02*
D03*
X-5512Y-41831D02*
D03*
X-8760Y-68504D02*
D03*
X-53937Y24803D02*
D03*
X38780Y9449D02*
D03*
X28740Y29528D02*
D03*
X9449Y52362D02*
D03*
X-17717Y-53051D02*
D03*
X71260Y-23228D02*
D03*
X50394Y-49606D02*
D03*
X2362Y29134D02*
D03*
X39764Y59842D02*
D03*
X50394Y-11024D02*
D03*
X46063Y-7087D02*
D03*
X71653Y25197D02*
D03*
X54724Y24803D02*
D03*
X-71260D02*
D03*
X11811Y-56693D02*
D03*
X46850Y-31496D02*
D03*
X-17323Y23622D02*
D03*
D38*
X20079Y35433D02*
D03*
X14567Y-47638D02*
D03*
M02*
